<svg xmlns="http://www.w3.org/2000/svg" width="188.333" height="122.023" viewBox="0 0 188.333 122.023">
  <g id="Group_4259" data-name="Group 4259" transform="translate(-213.478 -322)">
    <g id="Layer_4" data-name="Layer 4" transform="translate(234.277 322.5)">
      <path id="Path_6526" data-name="Path 6526" d="M444.2,342.643c-2.161-1.116-4.013-6.272.625-10.15.36-.3.76.049,1.2-.242q.526-.347,1.011-.682c1.724-1.186,3.086-3.225,4.2-4.172,1.189-1.01,2.1-.265,2.871-1.011.746-.72,1.364-1.968,1.981-2.448,0,0,3.543-1.491,4.894-1.058s1.3,1.3,1.891,1.081.7-1.459,1.459-1.459a14.519,14.519,0,0,1,3.837,1.243,23.852,23.852,0,0,0,4.81.541c.594,0,2.161,2.54,2.918,3.08s2.54,2.918,3.243,2.81,3.026,1.027,3.134,1.783.354,2.486.961,2.486.012,5.026.39,5.026.57,1.177-.39,1.507a42.882,42.882,0,0,1-4.2,1.033c-.216,0-4.161.506-4.323.415s-14.006.219-14.006.219H444.2" transform="translate(-388.307 -322.5)" fill="#393939" stroke="#1a1818" stroke-width="1" fill-rule="evenodd"/>
      <path id="Path_6527" data-name="Path 6527" d="M348.283,504.891s8.2-.219,10.064-.109,12.908,1.094,15.862,1.422,9.4-2.735,9.4-2.735l3.834-32.708,23.191-16.628,12.635-9.025S407.464,417.049,401.01,416.5a103.471,103.471,0,0,0-13.893,0L370.1,422.928H329.713L312.691,416.5a103.47,103.47,0,0,0-13.893,0c-6.454.547-22.261,28.606-22.261,28.606l12.635,9.025,23.191,16.628,3.834,32.708s6.449,3.063,9.4,2.735,14-1.313,15.862-1.422,10.064.109,10.064.109" transform="translate(-276.537 -385.858)" fill="#393939" stroke="#1a1818" stroke-width="1" fill-rule="evenodd"/>
      <path id="Path_6528" data-name="Path 6528" d="M467.626,362.962s1.106-.438,6.531,0,10.624,6.892,10.624,6.892.141,15.534,0,27.895-10.716,15.1-15.857,15.1-17.013-2.735-17.154-15.1,0-27.895,0-27.895,5.2-6.454,10.623-6.892S467.626,362.962,467.626,362.962Z" transform="translate(-394.907 -349.71)" fill="#fff" stroke="#1a1818" stroke-width="1" fill-rule="evenodd"/>
      <path id="Path_6529" data-name="Path 6529" d="M482.463,400.7l6.272-6.2,6.919,6.2" transform="translate(-415.692 -371.154)" fill="#fff" stroke="#1a1818" stroke-width="1" fill-rule="evenodd"/>
      <path id="Path_6530" data-name="Path 6530" d="M482.026,406.715l6.414-6.215,7.021,5.923" transform="translate(-415.396 -375.208)" fill="#fff" stroke="#1a1818" stroke-width="1" fill-rule="evenodd"/>
      <path id="Path_6531" data-name="Path 6531" d="M464.091,392.2s4.486-4.219,5.957-3.974" transform="translate(-403.277 -366.905)" fill="#fff" stroke="#1a1818" stroke-width="1" fill-rule="evenodd"/>
      <line id="Line_211" data-name="Line 211" x2="11.133" y2="1.982" transform="translate(76.997 21.318)" fill="#fff" stroke="#1a1818" stroke-width="1"/>
    </g>
    <g id="Layer_1" data-name="Layer 1" transform="translate(213.999 334.511)">
      <circle id="Ellipse_238" data-name="Ellipse 238" cx="13.556" cy="13.556" r="13.556" transform="translate(59.938 3.984)" fill="#b1b1b1" stroke="#1a1818" stroke-width="1"/>
      <path id="Path_6532" data-name="Path 6532" d="M452.04,365.475c1.531-.088,5.579,1.443,6.126,2.428a7.97,7.97,0,0,1,.547,3.829c-.109.875-2.259.766-3.317,0s-4.231-3.938-4.231-3.938L448.9,364.72" transform="translate(-372.733 -363.041)" fill="#fff" stroke="#1a1818" stroke-width="1" fill-rule="evenodd"/>
      <path id="Path_6533" data-name="Path 6533" d="M440.656,361.869c3.395-.234,5.8-.141,6.349,1.618s2.078,2.324-.547,2.1a28.66,28.66,0,0,1-5.8-.884" transform="translate(-367.162 -361.052)" fill="#fff" stroke="#1a1818" stroke-width="1" fill-rule="evenodd"/>
      <path id="Path_6534" data-name="Path 6534" d="M422.759,360.9c2.516-.612,5.688-.393,6.345,1.357s-.875,2.625-3.172,2.516a16.215,16.215,0,0,1-4.157-.766" transform="translate(-354.404 -360.25)" fill="#fff" stroke="#1a1818" stroke-width="1" fill-rule="evenodd"/>
      <circle id="Ellipse_239" data-name="Ellipse 239" cx="9.627" cy="9.627" r="9.627" transform="translate(63.867 7.913)" fill="#fff" stroke="#1a1818" stroke-width="1"/>
      <line id="Line_212" data-name="Line 212" y1="4.107" x2="4.654" transform="translate(71.112 15.388)" fill="#fff" stroke="#1a1818" stroke-width="1"/>
      <circle id="Ellipse_240" data-name="Ellipse 240" cx="13.556" cy="13.556" r="13.556" transform="translate(100.241 3.984)" fill="#b1b1b1" stroke="#1a1818" stroke-width="1"/>
      <path id="Path_6535" data-name="Path 6535" d="M536.038,365.475c-1.531-.088-5.579,1.443-6.126,2.428a7.97,7.97,0,0,0-.547,3.829c.11.875,2.259.766,3.317,0s4.231-3.938,4.231-3.938l2.265-3.074" transform="translate(-427.082 -363.041)" fill="#fff" stroke="#1a1818" stroke-width="1" fill-rule="evenodd"/>
      <path id="Path_6536" data-name="Path 6536" d="M549.757,361.869c-3.395-.234-5.8-.141-6.349,1.618s-2.078,2.324.547,2.1a28.66,28.66,0,0,0,5.8-.884" transform="translate(-435.96 -361.052)" fill="#fff" stroke="#1a1818" stroke-width="1" fill-rule="evenodd"/>
      <path id="Path_6537" data-name="Path 6537" d="M567.256,360.9c-2.516-.612-5.688-.393-6.345,1.357s.875,2.625,3.172,2.516a16.215,16.215,0,0,0,4.157-.766" transform="translate(-448.322 -360.25)" fill="#fff" stroke="#1a1818" stroke-width="1" fill-rule="evenodd"/>
      <circle id="Ellipse_241" data-name="Ellipse 241" cx="9.627" cy="9.627" r="9.627" transform="translate(104.17 7.913)" fill="#fff" stroke="#1a1818" stroke-width="1"/>
      <line id="Line_213" data-name="Line 213" x1="4.654" y1="4.107" transform="translate(111.523 15.388)" fill="#fff" stroke="#1a1818" stroke-width="1"/>
      <path id="Path_6538" data-name="Path 6538" d="M492.766,478.183c2.143-.766,5.425.766,5.863,1.422" transform="translate(-402.376 -439.572)" fill="none" stroke="#1a1818" stroke-width="1" fill-rule="evenodd"/>
      <path id="Path_6539" data-name="Path 6539" d="M493.7,443.324a4.207,4.207,0,0,0,2.3,2" transform="translate(-403.009 -416.158)" fill="none" stroke="#1a1818" stroke-width="1" fill-rule="evenodd"/>
      <path id="Path_6540" data-name="Path 6540" d="M503.11,443.324a4.206,4.206,0,0,1-2.3,2" transform="translate(-407.81 -416.158)" fill="none" stroke="#1a1818" stroke-width="1" fill-rule="evenodd"/>
      <path id="Path_6541" data-name="Path 6541" d="M548.158,391.53c-3.118-3.61-2.79-19.2-2.133-19.855s-3.118-6.4-6.071-7.876-3.118-2.625-2.3-3.446.984-1.313,3.282,0,9.517,6.4,11.486,10.5,3.282,11.322,5.743,15.588,31.177,45.288,31.177,45.288l-12.252-18.323,10.337-7.275s15.7,25.434,18.487,32.982,4.266,22.808-5.087,27.4-19.855-1.149-24.285-5.743-41.186-62.518-41.186-62.518a4.707,4.707,0,0,0-4.1-1.969c-2.954,0-9.189-6.728-10.5-7.876s-.82-2.954,0-3.118c0,0,.821-.574,2.3.41s5.989,4.677,9.271,4.677,9.858-1.734,13.632-6.41" transform="translate(-420.742 -359.542)" fill="#fff" stroke="#1a1818" stroke-width="1" fill-rule="evenodd"/>
      <path id="Path_6542" data-name="Path 6542" d="M273.873,392.53c3.118-3.61,2.79-19.2,2.133-19.855s3.118-6.4,6.071-7.876,3.118-2.625,2.3-3.446-.984-1.313-3.282,0-9.517,6.4-11.486,10.5-3.282,11.322-5.743,15.588-31.177,45.288-31.177,45.288l12.252-18.323L234.6,407.134s-15.7,25.434-18.487,32.982-4.266,22.808,5.087,27.4,19.854-1.149,24.285-5.743,41.186-62.518,41.186-62.518a4.707,4.707,0,0,1,4.1-1.969c2.954,0,9.189-6.728,10.5-7.876s.82-2.954,0-3.118c0,0-.82-.574-2.3.41s-5.989,4.677-9.271,4.677-9.858-1.734-13.632-6.41" transform="translate(-213.999 -360.218)" fill="#fff" stroke="#1a1818" stroke-width="1" fill-rule="evenodd"/>
    </g>
  </g>
</svg>
